#N canvas 287 -1055 1410 1027 12;
#X declare -lib Gem;
#X obj 43 67 declare -lib Gem;
#X obj 524 148 gemhead;
#X obj 524 557 translateXYZ;
#X floatatom 648 470 5 0 0 0 - - - 0;
#X floatatom 749 469 5 0 0 0 - - - 0;
#X obj 524 1033 rectangle;
#X obj 648 497 * 0.01;
#X obj 749 496 * 0.01;
#X obj 524 877 colorRGB;
#X floatatom 550 840 5 0 1 0 - - - 0;
#X floatatom 597 840 5 0 1 0 - - - 0;
#X floatatom 646 840 5 0 1 0 - - - 0;
#X obj 584 975 loadbang;
#X obj 197 366 cnv 15 50 30 empty empty empty 20 12 0 14 #e0e0e0 #404040 0;
#X msg 43 262 0 \, destroy;
#X obj 209 372 bng 15 250 50 0 empty empty empty 17 7 0 10 #fcfcfc #000000 #000000;
#X obj 43 152 loadbang;
#X obj 209 218 delay 800;
#X obj 43 218 delay 200;
#X obj 126 218 delay 400;
#X msg 126 311 buffer 1 \, topmost 1 \, offset 20 100 \, create \, 1;
#X text 230 371 <= SHAKE!;
#X text 632 1000 <- change cursor size;
#X text 42 447 ^ draw window @ 60fps;
#X text 823 467 <- horizontal & vertical mvt;
#X text 632 471 x;
#X text 734 470 y;
#X obj 584 999 0.04;
#X obj 648 190 key;
#X floatatom 648 219 5 0 0 0 - - - 0;
#X obj 648 378 +;
#X obj 648 414 int;
#X obj 749 377 +;
#X obj 749 413 int;
#X text 825 268 <- selecting mvt keys;
#X text 522 66 CONTROLS: Z/X = x movement \, N/M = y movement \, SHAKE to discard;
#X obj 43 421 gemwin 60;
#X msg 648 337 8;
#X msg 695 336 -8;
#X msg 749 336 8;
#X msg 796 335 -8;
#X obj 648 269 select 120 122 109 110;
#X obj 1404 194 bng 15 250 50 0 empty empty empty 17 7 0 10 #fcfcfc #000000 #000000;
#X obj 1256 604 mtof;
#X obj 1384 604 mtof;
#X obj 1515 601 mtof;
#X obj 1651 604 mtof;
#X obj 1384 1050 *~ 0.1;
#X obj 1791 604 mtof;
#X obj 1256 687 phasor~;
#X obj 1256 718 expr~ $v1 * 2 - 1;
#X obj 1384 687 phasor~;
#X obj 1384 718 expr~ $v1 * 2 - 1;
#X obj 1516 688 phasor~;
#X obj 1516 717 expr~ $v1 * 2 - 1;
#X obj 1651 687 phasor~;
#X obj 1651 718 expr~ $v1 * 2 - 1;
#X obj 1791 687 phasor~;
#X obj 1791 718 expr~ $v1 * 2 - 1;
#X floatatom 1834 913 5 0 0 0 - - - 0;
#X obj 1384 1416 dac~;
#X obj 1834 981 line;
#X obj 1404 156 metro;
#X floatatom 1436 124 5 0 0 0 - - - 0;
#X msg 1834 947 \$1 2000;
#X obj 1928 605 mtof;
#X obj 1928 687 phasor~;
#X obj 1928 718 expr~ $v1 * 2 - 1;
#X obj 1928 567 - 12;
#X obj 1554 371 random 12;
#X obj 1474 448 +;
#X obj 1346 447 +;
#X floatatom 1554 499 5 0 0 0 - - - 0;
#X floatatom 1474 499 5 0 0 0 - - - 0;
#X floatatom 1400 499 5 0 0 0 - - - 0;
#X floatatom 1346 499 5 0 0 0 - - - 0;
#X obj 1554 416 + 48;
#X floatatom 1650 498 5 0 0 0 - - - 0;
#X obj 1650 451 - 12;
#X obj 1474 371 random 2;
#X obj 1474 416 + 3;
#X obj 1346 372 random 2;
#X obj 1346 415 + 3;
#X obj 1400 448 + 7;
#X obj 1404 124 tgl 19 0 empty empty empty 0 -10 0 12 #fcfcfc #000000 #000000 0 1;
#X obj 1436 63 loadbang;
#X obj 1384 1295 delread4~ \$0-buffer;
#X obj 1384 1196 expr~ ($v1 + 1) / 2;
#X obj 1384 1256 +~ 5;
#X obj 1384 1168 osc~ 0.5;
#X obj 1384 1226 *~ 5;
#X obj 1384 1139 delwrite~ \$0-buffer 100;
#X obj 1228 1295 delread4~ \$0-buffer;
#X obj 1705 1295 delread4~ \$0-buffer;
#X obj 1705 1196 expr~ ($v1 + 1) / 2;
#X obj 1705 1168 osc~ 0.5;
#X obj 1705 1226 *~ 5;
#X obj 1549 1295 delread4~ \$0-buffer;
#X obj 1705 1256 +~ 6;
#X obj 1228 1336 *~ 0.5;
#X obj 1549 1341 *~ 0.5;
#X text 1492 1032 ^ low-pass filter;
#X text 1480 125 <- tempo for chord changes;
#X text 1671 422 <- random chords;
#X text 1920 945 <- randomized Q-factor, f 15;
#X text 1873 1242 <- chorus-ey effect;
#X text 1976 605 <- midi to freq values;
#X text 2073 699 <- waves;
#X msg 1436 95 2000;
#X floatatom 1179 955 9 0 0 0 - - - 0;
#X obj 1179 889 loadbang;
#X text 1097 321 [y controls tempo];
#X text 907 663 [x controls lpf's resonant frequency];
#X obj 1384 999 vcf~, f 22;
#X obj 1828 340 random 10;
#X obj 1828 364 + 20;
#X obj 1828 392 / 10;
#X obj 913 687 expr 5000 + ($f1 / 400 * 5000);
#X obj 1069 297 expr 500 - ($f1 / 400 * 500);
#X msg 1179 915 5000;
#X obj 1459 973 sig~ 5000;
#X text 1180 984 ^ resonant freq;
#X obj 1404 244 t b b b b b;
#X obj 550 659 random 1000;
#X obj 550 684 / 1000;
#X obj 597 722 random 1000;
#X obj 597 747 / 1000;
#X obj 646 777 random 1000;
#X obj 646 802 / 1000;
#X obj 794 644 bng 15 250 50 0 empty empty empty 17 7 0 10 #fcfcfc #000000 #000000;
#X text 594 878 <- random colour change;
#X connect 1 0 2 0;
#X connect 2 0 8 0;
#X connect 3 0 6 0;
#X connect 3 0 117 0;
#X connect 4 0 7 0;
#X connect 4 0 118 0;
#X connect 6 0 2 1;
#X connect 7 0 2 2;
#X connect 8 0 5 0;
#X connect 9 0 8 1;
#X connect 10 0 8 2;
#X connect 11 0 8 3;
#X connect 12 0 27 0;
#X connect 14 0 36 0;
#X connect 15 0 36 0;
#X connect 16 0 18 0;
#X connect 16 0 19 0;
#X connect 16 0 17 0;
#X connect 17 0 15 0;
#X connect 18 0 14 0;
#X connect 19 0 20 0;
#X connect 20 0 36 0;
#X connect 27 0 5 1;
#X connect 27 0 5 2;
#X connect 28 0 29 0;
#X connect 29 0 41 0;
#X connect 30 0 31 0;
#X connect 31 0 30 1;
#X connect 31 0 3 0;
#X connect 32 0 33 0;
#X connect 33 0 32 1;
#X connect 33 0 4 0;
#X connect 37 0 30 0;
#X connect 38 0 30 0;
#X connect 39 0 32 0;
#X connect 40 0 32 0;
#X connect 41 0 37 0;
#X connect 41 1 38 0;
#X connect 41 2 39 0;
#X connect 41 3 40 0;
#X connect 42 0 122 0;
#X connect 43 0 49 0;
#X connect 44 0 51 0;
#X connect 45 0 53 0;
#X connect 46 0 55 0;
#X connect 47 0 91 0;
#X connect 48 0 57 0;
#X connect 49 0 50 0;
#X connect 50 0 113 0;
#X connect 51 0 52 0;
#X connect 52 0 113 0;
#X connect 53 0 54 0;
#X connect 54 0 113 0;
#X connect 55 0 56 0;
#X connect 56 0 113 0;
#X connect 57 0 58 0;
#X connect 58 0 113 0;
#X connect 59 0 64 0;
#X connect 61 0 113 2;
#X connect 62 0 42 0;
#X connect 63 0 62 1;
#X connect 64 0 61 0;
#X connect 65 0 66 0;
#X connect 66 0 67 0;
#X connect 67 0 113 0;
#X connect 68 0 65 0;
#X connect 69 0 76 0;
#X connect 70 0 73 0;
#X connect 71 0 75 0;
#X connect 72 0 46 0;
#X connect 73 0 45 0;
#X connect 74 0 44 0;
#X connect 75 0 43 0;
#X connect 76 0 72 0;
#X connect 76 0 78 0;
#X connect 76 0 83 0;
#X connect 76 0 70 1;
#X connect 77 0 48 0;
#X connect 77 0 68 0;
#X connect 78 0 77 0;
#X connect 79 0 80 0;
#X connect 80 0 70 0;
#X connect 81 0 82 0;
#X connect 82 0 71 0;
#X connect 83 0 74 0;
#X connect 83 0 71 1;
#X connect 84 0 62 0;
#X connect 85 0 84 0;
#X connect 85 0 108 0;
#X connect 86 0 99 0;
#X connect 87 0 90 0;
#X connect 88 0 86 0;
#X connect 89 0 87 0;
#X connect 90 0 88 0;
#X connect 92 0 99 0;
#X connect 93 0 100 0;
#X connect 94 0 96 0;
#X connect 95 0 94 0;
#X connect 96 0 98 0;
#X connect 97 0 100 0;
#X connect 98 0 93 0;
#X connect 99 0 60 0;
#X connect 100 0 60 1;
#X connect 108 0 63 0;
#X connect 109 0 120 0;
#X connect 110 0 119 0;
#X connect 113 1 47 0;
#X connect 114 0 115 0;
#X connect 115 0 116 0;
#X connect 116 0 59 0;
#X connect 117 0 109 0;
#X connect 118 0 63 0;
#X connect 119 0 109 0;
#X connect 120 0 113 1;
#X connect 122 0 129 0;
#X connect 122 1 81 0;
#X connect 122 2 79 0;
#X connect 122 3 69 0;
#X connect 122 4 114 0;
#X connect 123 0 124 0;
#X connect 124 0 9 0;
#X connect 125 0 126 0;
#X connect 126 0 10 0;
#X connect 127 0 128 0;
#X connect 128 0 11 0;
#X connect 129 0 123 0;
#X connect 129 0 125 0;
#X connect 129 0 127 0;
