#N canvas 222 25 1212 792 12;
#X declare -lib Gem;
#X obj 43 67 declare -lib Gem;
#X obj 524 148 gemhead;
#X obj 524 557 translateXYZ;
#X floatatom 648 470 5 0 0 0 - - - 0;
#X floatatom 749 469 5 0 0 0 - - - 0;
#X obj 524 781 rectangle;
#X obj 648 497 * 0.01;
#X obj 749 496 * 0.01;
#X obj 524 667 colorRGB;
#X floatatom 550 630 5 0 1 0 - - - 0;
#X floatatom 597 630 5 0 1 0 - - - 0;
#X floatatom 646 630 5 0 1 0 - - - 0;
#X obj 584 723 loadbang;
#X obj 197 366 cnv 15 50 30 empty empty empty 20 12 0 14 #e0e0e0 #404040 0;
#X msg 43 262 0 \, destroy;
#X obj 209 372 bng 15 250 50 0 empty empty empty 17 7 0 10 #fcfcfc #000000 #000000;
#X obj 43 152 loadbang;
#X obj 209 218 delay 800;
#X obj 43 218 delay 200;
#X obj 126 218 delay 400;
#X msg 126 311 buffer 1 \, topmost 1 \, offset 20 100 \, create \, 1;
#X text 230 371 <= SHAKE!;
#X text 632 748 <- change cursor size;
#X text 42 447 ^ draw window @ 60fps;
#X text 823 467 <- horizontal & vertical mvt;
#X text 632 471 x;
#X text 734 470 y;
#X obj 584 747 0.04;
#X text 610 669 <- change colour [0.0-1.0];
#X obj 648 190 key;
#X floatatom 648 219 5 0 0 0 - - - 0;
#X obj 648 378 +;
#X obj 648 414 int;
#X obj 749 377 +;
#X obj 749 413 int;
#X text 825 268 <- selecting mvt keys;
#X text 522 66 CONTROLS: Z/X = x movement \, N/M = y movement \, SHAKE to discard;
#X obj 43 421 gemwin 60;
#X msg 648 337 8;
#X msg 695 336 -8;
#X msg 749 336 8;
#X msg 796 335 -8;
#X obj 648 269 select 120 122 109 110;
#X connect 1 0 2 0;
#X connect 2 0 8 0;
#X connect 3 0 6 0;
#X connect 4 0 7 0;
#X connect 6 0 2 1;
#X connect 7 0 2 2;
#X connect 8 0 5 0;
#X connect 9 0 8 1;
#X connect 10 0 8 2;
#X connect 11 0 8 3;
#X connect 12 0 27 0;
#X connect 14 0 37 0;
#X connect 15 0 37 0;
#X connect 16 0 18 0;
#X connect 16 0 19 0;
#X connect 16 0 17 0;
#X connect 17 0 15 0;
#X connect 18 0 14 0;
#X connect 19 0 20 0;
#X connect 20 0 37 0;
#X connect 27 0 5 1;
#X connect 27 0 5 2;
#X connect 29 0 30 0;
#X connect 30 0 42 0;
#X connect 31 0 32 0;
#X connect 32 0 31 1;
#X connect 32 0 3 0;
#X connect 33 0 34 0;
#X connect 34 0 33 1;
#X connect 34 0 4 0;
#X connect 38 0 31 0;
#X connect 39 0 31 0;
#X connect 40 0 33 0;
#X connect 41 0 33 0;
#X connect 42 0 38 0;
#X connect 42 1 39 0;
#X connect 42 2 40 0;
#X connect 42 3 41 0;
