#N canvas 400 66 763 682 12;
#X declare -lib Gem;
#N canvas 0 23 450 300 gemwin 0;
#X obj 132 136 gemwin;
#X obj 67 89 outlet;
#X obj 67 10 inlet;
#X obj 67 41 route create;
#X msg 67 70 set destroy;
#X msg 175 68 set create;
#X msg 132 112 create \, 1;
#X msg 198 112 destroy;
#X obj 287 94 loadbang;
#X msg 294 121 reset \, lighting 0;
#X obj 211 23 loadbang;
#X connect 2 0 3 0;
#X connect 3 0 4 0;
#X connect 3 0 6 0;
#X connect 3 1 5 0;
#X connect 3 1 7 0;
#X connect 4 0 1 0;
#X connect 5 0 1 0;
#X connect 6 0 0 0;
#X connect 7 0 0 0;
#X connect 8 0 9 0;
#X connect 9 0 0 0;
#X connect 10 0 5 0;
#X restore 225 68 pd gemwin;
#X msg 225 49 create;
#X obj 43 67 declare -lib Gem;
#X obj 225 493 part_color;
#X obj 225 252 part_head;
#X obj 225 178 tgl 15 0 empty empty empty 0 -6 0 8 #fcfcfc #000000 #000000 0 1;
#X obj 225 545 part_render;
#X msg 52 544 draw line;
#X obj 225 132 loadbang;
#X obj 357 437 loadbang;
#X obj 380 153 vsl 15 128 0.1 5 0 0 empty empty empty 0 -9 0 10 #fcfcfc #000000 #000000 0 1;
#X obj 225 205 gemhead;
#X msg 258 466 0.1 0.3 1;
#X obj 52 504 loadbang;
#X msg 225 154 0;
#X obj 225 284 part_size 2;
#X obj 225 577 rectangle;
#X msg 140 544 draw fill;
#X obj 225 328 part_source 5;
#X msg 296 205 speed 1;
#X obj 225 397 part_killold 10;
#X msg 357 465 1 1 1;
#X obj 225 362 part_velocity circle 0 0 0 0.1;
#X text 223 28 create window;
#X text 378 117 change size of shape;
#X text 458 362 change domain;
#X text 49 471 change fill;
#X text 430 467 change colours;
#X text 305 577 change shape;
#X connect 0 0 1 0;
#X connect 1 0 0 0;
#X connect 3 0 6 0;
#X connect 4 0 15 0;
#X connect 5 0 11 0;
#X connect 6 0 16 0;
#X connect 7 0 16 0;
#X connect 8 0 14 0;
#X connect 9 0 21 0;
#X connect 9 0 12 0;
#X connect 10 0 15 1;
#X connect 11 0 4 0;
#X connect 12 0 3 1;
#X connect 13 0 7 0;
#X connect 14 0 5 0;
#X connect 15 0 18 0;
#X connect 17 0 16 0;
#X connect 18 0 22 0;
#X connect 19 0 4 0;
#X connect 20 0 3 0;
#X connect 21 0 3 2;
#X connect 22 0 20 0;
