#N canvas -14 -966 1459 815 12;
#X obj 302 33 bng 15 250 50 0 empty empty empty 17 7 0 10 #fcfcfc #000000 #000000;
#X obj 149 584 mtof;
#X obj 277 584 mtof;
#X obj 408 581 mtof;
#X obj 544 584 mtof;
#X obj 277 1030 *~ 0.1;
#X msg 772 371 0;
#X obj 684 584 mtof;
#X obj 149 667 phasor~;
#X obj 149 698 expr~ $v1 * 2 - 1;
#X obj 277 667 phasor~;
#X obj 277 698 expr~ $v1 * 2 - 1;
#X obj 409 668 phasor~;
#X obj 409 697 expr~ $v1 * 2 - 1;
#X obj 544 667 phasor~;
#X obj 544 698 expr~ $v1 * 2 - 1;
#X obj 684 667 phasor~;
#X obj 684 698 expr~ $v1 * 2 - 1;
#X obj 277 979 vcf~, f 22;
#X floatatom 593 892 5 0 0 0 - - - 0;
#X obj 41 725 line~;
#X obj 41 669 *;
#X obj 59 178 / 25;
#X obj 277 1396 dac~;
#X obj 593 960 line;
#X obj 302 83 t b b;
#X obj 334 130 bng 15 250 50 0 empty empty empty 17 7 0 10 #fcfcfc #000000 #000000;
#X obj 59 150 + 25;
#X obj 59 126 random 50;
#X obj 302 -5 metro;
#X floatatom 334 -37 5 0 0 0 - - - 0;
#X msg 41 697 \$1 2000;
#X msg 593 926 \$1 2000;
#X obj 821 585 mtof;
#X obj 821 667 phasor~;
#X obj 821 698 expr~ $v1 * 2 - 1;
#X obj 821 547 - 12;
#X obj 454 244 random 12;
#X obj 374 315 +;
#X obj 246 314 +;
#X floatatom 454 367 5 0 0 0 - - - 0;
#X floatatom 374 367 5 0 0 0 - - - 0;
#X floatatom 300 366 5 0 0 0 - - - 0;
#X floatatom 246 366 5 0 0 0 - - - 0;
#X obj 454 284 + 48;
#X floatatom 550 368 5 0 0 0 - - - 0;
#X obj 550 318 - 12;
#X obj 374 243 random 2;
#X obj 374 283 + 3;
#X obj 246 239 random 2;
#X obj 246 282 + 3;
#X obj 300 315 + 7;
#X obj 334 172 t b b b;
#X obj 302 -37 tgl 19 0 empty empty empty 0 -10 0 12 #fcfcfc #000000 #000000 0 1;
#X obj 772 83 bng 19 250 50 0 empty empty empty 0 -10 0 12 #fcfcfc #000000 #000000;
#X text 571 289 <-- random chords;
#X text 679 924 <-- randomized Q-factor, f 15;
#X text 18 825 ^ randomized resonant freq, f 16;
#X text 802 83 <-- ON/OFF;
#X text 966 679 <-- waves;
#X text 869 585 <-- midi to freq values;
#X text 378 -36 <-- tempo for chord changes;
#X obj 334 -98 loadbang;
#X msg 334 -73 2000;
#X obj 277 1275 delread4~ \$0-buffer;
#X obj 277 1176 expr~ ($v1 + 1) / 2;
#X obj 277 1236 +~ 5;
#X obj 277 1148 osc~ 0.5;
#X obj 277 1206 *~ 5;
#X obj 277 1119 delwrite~ \$0-buffer 100;
#X obj 121 1275 delread4~ \$0-buffer;
#X obj 598 1275 delread4~ \$0-buffer;
#X obj 598 1176 expr~ ($v1 + 1) / 2;
#X obj 598 1148 osc~ 0.5;
#X obj 598 1206 *~ 5;
#X obj 442 1275 delread4~ \$0-buffer;
#X obj 598 1236 +~ 6;
#X obj 121 1316 *~ 0.5;
#X obj 442 1321 *~ 0.5;
#X text 766 1222 <-- chorus-ey effect;
#X text 375 1016 ^ low-pass filter;
#X connect 0 0 25 0;
#X connect 1 0 8 0;
#X connect 1 0 21 0;
#X connect 2 0 10 0;
#X connect 3 0 12 0;
#X connect 4 0 14 0;
#X connect 5 0 69 0;
#X connect 6 0 4 0;
#X connect 6 0 1 0;
#X connect 6 0 2 0;
#X connect 6 0 3 0;
#X connect 6 0 7 0;
#X connect 6 0 33 0;
#X connect 7 0 16 0;
#X connect 8 0 9 0;
#X connect 9 0 18 0;
#X connect 10 0 11 0;
#X connect 11 0 18 0;
#X connect 12 0 13 0;
#X connect 13 0 18 0;
#X connect 14 0 15 0;
#X connect 15 0 18 0;
#X connect 16 0 17 0;
#X connect 17 0 18 0;
#X connect 18 1 5 0;
#X connect 19 0 32 0;
#X connect 20 0 18 1;
#X connect 21 0 31 0;
#X connect 22 0 21 1;
#X connect 22 0 19 0;
#X connect 24 0 18 2;
#X connect 25 0 28 0;
#X connect 25 1 26 0;
#X connect 26 0 52 0;
#X connect 27 0 22 0;
#X connect 28 0 27 0;
#X connect 29 0 0 0;
#X connect 30 0 29 1;
#X connect 31 0 20 0;
#X connect 32 0 24 0;
#X connect 33 0 34 0;
#X connect 34 0 35 0;
#X connect 35 0 18 0;
#X connect 36 0 33 0;
#X connect 37 0 44 0;
#X connect 38 0 41 0;
#X connect 39 0 43 0;
#X connect 40 0 4 0;
#X connect 41 0 3 0;
#X connect 42 0 2 0;
#X connect 43 0 1 0;
#X connect 44 0 40 0;
#X connect 44 0 46 0;
#X connect 44 0 51 0;
#X connect 44 0 38 1;
#X connect 45 0 7 0;
#X connect 45 0 36 0;
#X connect 46 0 45 0;
#X connect 47 0 48 0;
#X connect 48 0 38 0;
#X connect 49 0 50 0;
#X connect 50 0 39 0;
#X connect 51 0 42 0;
#X connect 51 0 39 1;
#X connect 52 0 49 0;
#X connect 52 1 47 0;
#X connect 52 2 37 0;
#X connect 53 0 29 0;
#X connect 54 0 6 0;
#X connect 54 0 53 0;
#X connect 62 0 63 0;
#X connect 63 0 30 0;
#X connect 64 0 77 0;
#X connect 65 0 68 0;
#X connect 66 0 64 0;
#X connect 67 0 65 0;
#X connect 68 0 66 0;
#X connect 70 0 77 0;
#X connect 71 0 78 0;
#X connect 72 0 74 0;
#X connect 73 0 72 0;
#X connect 74 0 76 0;
#X connect 75 0 78 0;
#X connect 76 0 71 0;
#X connect 77 0 23 0;
#X connect 78 0 23 1;
